HIERARCHY
ROOT Hips
{
	OFFSET -21.947001 39.810204 44.525997
	CHANNELS 6 Xposition Yposition Zposition Zrotation Xrotation Yrotation
	JOINT Chest
	{
		OFFSET -0.201599 0.334099 6.453201
		CHANNELS 6 Xposition Yposition Zposition Zrotation Xrotation Yrotation
		JOINT Chest2
		{
			OFFSET 0.000000 0.000000 3.568001
			CHANNELS 6 Xposition Yposition Zposition Zrotation Xrotation Yrotation
			JOINT Neck
			{
				OFFSET 0.000000 0.000000 8.296402
				CHANNELS 6 Xposition Yposition Zposition Zrotation Xrotation Yrotation
				JOINT Head
				{
					OFFSET 0.000000 0.000000 2.173901
					CHANNELS 6 Xposition Yposition Zposition Zrotation Xrotation Yrotation
					End Site
					{
						OFFSET 0.000000 0.000000 7.891998
					}
				}
			}
			JOINT LeftCollar
			{
				OFFSET 1.927601 0.221401 6.049000
				CHANNELS 6 Xposition Yposition Zposition Zrotation Xrotation Yrotation
				JOINT LeftShoulder
				{
					OFFSET 4.959700 0.000000 0.000000
					CHANNELS 6 Xposition Yposition Zposition Zrotation Xrotation Yrotation
					JOINT LeftElbow
					{
						OFFSET 0.000000 0.000000 -8.654202
						CHANNELS 6 Xposition Yposition Zposition Zrotation Xrotation Yrotation
						JOINT LeftWrist
						{
							OFFSET 0.000000 0.000000 -13.864101
							CHANNELS 6 Xposition Yposition Zposition Zrotation Xrotation Yrotation
							End Site
							{
								OFFSET 0.000000 0.000000 -2.173901
							}
						}
					}
				}
			}
			JOINT RightCollar
			{
				OFFSET -3.155701 -0.764999 6.687801
				CHANNELS 6 Xposition Yposition Zposition Zrotation Xrotation Yrotation
				JOINT RightShoulder
				{
					OFFSET -3.592899 0.000000 0.000000
					CHANNELS 6 Xposition Yposition Zposition Zrotation Xrotation Yrotation
					JOINT RightElbow
					{
						OFFSET 0.000000 0.000000 -10.352398
						CHANNELS 6 Xposition Yposition Zposition Zrotation Xrotation Yrotation
						JOINT RightWrist
						{
							OFFSET 0.000000 0.000000 -12.750301
							CHANNELS 6 Xposition Yposition Zposition Zrotation Xrotation Yrotation
							End Site
							{
								OFFSET 0.000000 0.000000 -2.173901
							}
						}
					}
				}
			}
		}
	}
	JOINT LeftHip
	{
		OFFSET 2.460600 -0.518101 -2.735500
		CHANNELS 6 Xposition Yposition Zposition Zrotation Xrotation Yrotation
		JOINT LeftKnee
		{
			OFFSET 0.000000 -0.000004 -17.005899
			CHANNELS 6 Xposition Yposition Zposition Zrotation Xrotation Yrotation
			JOINT LeftAnkle
			{
				OFFSET 0.000000 0.000000 -19.194401
				CHANNELS 6 Xposition Yposition Zposition Zrotation Xrotation Yrotation
				End Site
				{
					OFFSET 0.000000 -8.134600 0.000000
				}
			}
		}
	}
	JOINT RightHip
	{
		OFFSET -3.115499 -0.679600 -2.320301
		CHANNELS 6 Xposition Yposition Zposition Zrotation Xrotation Yrotation
		JOINT RightKnee
		{
			OFFSET 0.000000 -0.000004 -17.680401
			CHANNELS 6 Xposition Yposition Zposition Zrotation Xrotation Yrotation
			JOINT RightAnkle
			{
				OFFSET 0.000000 0.000000 -16.993797
				CHANNELS 6 Xposition Yposition Zposition Zrotation Xrotation Yrotation
				End Site
				{
					OFFSET 0.000000 -8.842300 0.000000
				}
			}
		}
	}
}
MOTION
Frames: 6
Frame Time: 0.041667
-31.224201 21.234510 20.006294 3900.564323 16.747055 -14.208348 -0.201597 0.334097 6.453198 23.371562 2.917685 -3.875458 -0.000001 0.000004 3.568002 -6.994866 -3.757104 -1.589167 -0.000010 -0.000001 8.296391 -124.297026 -62.825473 -15.594249 -0.000003 -0.000006 2.173898 -19.325709 -53.823684 -5.779104 1.927598 0.221398 6.048996 -6.613055 -5.472356 6.733381 4.959705 0.000005 -0.000007 210.404920 192.550915 81.510419 -0.000004 0.000000 -8.654205 75.683967 -9.879100 7.644080 0.000004 0.000002 -13.864097 3841.286587 -152.731158 189.493326 -3.155706 -0.765008 6.687802 32.756208 5.137473 42.840948 -3.592890 0.000006 0.000008 -35.549758 -17.211949 117.265182 -0.000003 -0.000001 -10.352392 -109.400042 -109.070724 -20.566074 0.000002 -0.000006 -12.750305 95.233089 -0.727215 14.782609 2.460595 -0.518101 -2.735499 123.767563 -8.868024 109.413586 -0.000006 -0.000010 -17.005901 -328.309462 165.252506 -55.868833 -0.000005 -0.000002 -19.194401 436.776473 5.721181 56.876959 -3.115498 -0.679594 -2.320293 41.392217 43.889952 4.429958 -0.000003 0.000004 -17.680393 -124.164820 182.779469 -275.140210 0.000000 -0.000003 -16.993793 331.166503 55.125583 -135.529722
-31.228994 21.241007 20.004099 3900.636450 16.618142 -14.166535 -0.201600 0.334102 6.453198 23.244764 2.989551 -3.930551 -0.000003 0.000000 3.567998 -6.945334 -3.757378 -1.578252 -0.000000 0.000011 8.296395 -124.041590 -62.869542 -15.394249 -0.000004 -0.000004 2.173910 -19.290259 -53.902559 -5.644097 1.927608 0.221408 6.049001 -6.729230 -5.342351 6.832035 4.959705 0.000001 0.000005 210.425124 192.723992 81.502434 -0.000009 -0.000004 -8.654204 75.701302 -9.919248 7.615805 0.000000 -0.000005 -13.864104 3841.072392 -152.726513 189.297067 -3.155698 -0.764998 6.687801 32.925883 5.187594 42.560627 -3.592897 0.000010 0.000001 -35.685269 -17.191924 117.499662 0.000007 0.000003 -10.352387 -109.351199 -109.109205 -20.470511 -0.000003 -0.000004 -12.750304 95.287423 -0.694255 14.808893 2.460601 -0.518094 -2.735506 123.675355 -9.077857 109.357633 -0.000004 -0.000005 -17.005898 -328.324352 165.065974 -55.854186 -0.000006 -0.000003 -19.194397 436.590828 5.761296 56.701352 -3.115498 -0.679596 -2.320297 41.412192 43.924205 4.243820 -0.000006 0.000006 -17.680395 -124.044992 182.871963 -275.078629 -0.000001 -0.000001 -16.993792 331.017823 55.031889 -135.656914
-31.237000 21.248299 20.001493 3900.758847 16.436545 -14.119711 -0.201599 0.334105 6.453196 23.064475 3.085613 -4.013916 -0.000006 0.000003 3.567998 -6.903101 -3.756227 -1.567873 -0.000006 -0.000001 8.296394 -124.040812 -62.879657 -15.332748 -0.000009 -0.000000 2.173903 -19.216928 -53.927041 -5.589114 1.927598 0.221398 6.048995 -6.830863 -5.212473 6.906116 4.959694 0.000002 0.000006 210.436025 192.884283 81.530520 0.000000 -0.000002 -8.654201 75.696582 -9.963432 7.567763 0.000001 -0.000007 -13.864100 3840.955678 -152.690231 189.242877 -3.155709 -0.765006 6.687797 33.097703 5.241471 42.293795 -3.592898 0.000005 0.000001 -35.824882 -17.200633 117.717313 -0.000001 -0.000001 -10.352403 -109.275070 -109.133254 -20.400201 0.000001 -0.000004 -12.750299 95.308542 -0.647660 14.806143 2.460601 -0.518093 -2.735503 123.528165 -9.361088 109.280834 -0.000002 -0.000013 -17.005898 -328.299217 164.889236 -55.841438 -0.000007 -0.000005 -19.194403 436.417505 5.801927 56.555729 -3.115501 -0.679592 -2.320303 41.414671 43.971074 3.985777 0.000002 -0.000002 -17.680395 -123.905260 182.949841 -275.018851 -0.000005 -0.000009 -16.993792 330.833627 54.930096 -135.740229
-31.247601 21.256201 19.998398 3900.923209 16.212796 -14.070827 -0.201601 0.334101 6.453196 22.850512 3.197613 -4.114247 0.000001 0.000008 3.568003 -6.872924 -3.751615 -1.558218 -0.000005 0.000000 8.296398 -124.068542 -62.870730 -15.271582 -0.000005 -0.000004 2.173899 -19.132632 -53.941897 -5.543020 1.927595 0.221396 6.048991 -6.926759 -5.082934 6.954206 4.959703 0.000002 0.000003 210.445368 193.040735 81.583919 -0.000007 0.000000 -8.654196 75.652261 -10.011602 7.513539 0.000002 0.000001 -13.864100 3840.891419 -152.676899 189.196267 -3.155707 -0.765004 6.687802 33.284014 5.310364 42.044066 -3.592897 0.000005 0.000002 -35.997173 -17.216402 117.915594 -0.000005 0.000004 -10.352390 -109.223898 -109.148035 -20.378588 0.000004 0.000000 -12.750301 95.286241 -0.589397 14.775745 2.460601 -0.518102 -2.735500 123.336551 -9.699900 109.185977 -0.000002 -0.000008 -17.005898 -328.229768 164.745215 -55.836291 -0.000006 0.000004 -19.194403 436.275328 5.840899 56.458262 -3.115499 -0.679596 -2.320298 41.402121 44.028147 3.669859 -0.000005 0.000004 -17.680389 -123.780977 182.969771 -274.959975 -0.000006 -0.000005 -16.993792 330.999710 55.016416 -135.107822
-31.259998 21.264702 19.995396 3901.117732 15.960702 -14.019079 -0.201598 0.334098 6.453209 22.591646 3.303616 -4.223392 -0.000001 0.000000 3.567996 -6.837706 -3.733220 -1.545793 -0.000007 0.000002 8.296400 -124.163728 -62.849721 -15.215061 0.000001 0.000002 2.173899 -19.085319 -53.910454 -5.584985 1.927600 0.221405 6.048994 -6.990851 -4.982724 6.970815 4.959699 0.000003 -0.000004 210.435123 193.084353 81.605399 -0.000001 -0.000006 -8.654200 75.658566 -10.018001 7.474928 0.000001 -0.000004 -13.864100 3840.913276 -152.646491 189.156106 -3.155708 -0.764999 6.687799 33.561726 5.434225 41.771289 -3.592900 0.000004 0.000007 -36.273236 -17.215082 118.126100 -0.000000 0.000001 -10.352397 -109.304596 -109.167351 -20.472481 0.000006 -0.000002 -12.750301 95.203104 -0.536652 14.723284 2.460603 -0.518101 -2.735496 123.112958 -10.081139 109.080491 -0.000006 -0.000008 -17.005899 -328.108928 164.653144 -55.845778 -0.000011 -0.000002 -19.194405 436.182956 5.871635 56.418893 -3.115501 -0.679600 -2.320292 41.378116 44.089978 3.313411 -0.000003 0.000005 -17.680399 -123.681858 182.928093 -274.905115 -0.000000 -0.000001 -16.993786 330.866521 55.036694 -134.944321
-31.274099 21.274300 19.992300 3901.344167 15.673860 -13.964049 -0.201600 0.334098 6.453208 22.302569 3.411997 -4.341368 0.000001 0.000002 3.567996 -6.815954 -3.701592 -1.533946 -0.000009 0.000003 8.296397 -124.359617 -62.819210 -15.179342 -0.000009 0.000006 2.173897 -19.027814 -53.854816 -5.668089 1.927596 0.221404 6.049000 -7.011792 -4.931305 6.936374 4.959700 -0.000007 0.000001 210.408799 193.018168 81.627454 -0.000001 0.000005 -8.654196 75.701637 -9.994259 7.457598 0.000002 0.000003 -13.864100 3840.948246 -152.585962 189.154494 -3.155706 -0.764999 6.687806 33.884968 5.581638 41.488990 -3.592904 0.000002 -0.000003 -36.577043 -17.265759 118.339448 -0.000004 0.000001 -10.352396 -109.412507 -109.184167 -20.629354 -0.000003 -0.000005 -12.750299 95.084047 -0.488600 14.669991 2.460604 -0.518102 -2.735498 122.853042 -10.513834 108.958149 -0.000005 -0.000000 -17.005901 -327.927983 164.617094 -55.875390 -0.000008 0.000005 -19.194401 436.147576 5.890428 56.430685 -3.115498 -0.679596 -2.320293 41.344672 44.161049 2.910921 0.000001 0.000005 -17.680395 -123.550226 182.834110 -274.861456 -0.000002 -0.000002 -16.993792 330.811907 55.007775 -134.816965
